<svg width="847" height="322" viewBox="0 0 847 322" fill="none" xmlns="http://www.w3.org/2000/svg">
<g opacity="0.1">
<path d="M149.2 4.39999L0 198.8V248.4H161.2V317.6H209.6V248.4H256V204H209.6V4.39999H149.2ZM161.2 60V204H50.4L161.2 60Z" fill="#1E1F21"/>
<path d="M293.566 160.8C293.566 206.8 305.566 244.8 329.966 275.6C354.366 306 385.966 321.2 424.766 321.2C463.566 321.2 495.566 306 519.966 275.2C544.366 244.4 556.766 206 556.766 160C556.766 114.4 544.766 76.4 520.366 46C495.966 15.2 464.366 0 425.566 0C386.766 0 355.166 15.6 330.366 46.4C305.966 77.2 293.566 115.2 293.566 160.8ZM505.966 160.8C505.966 193.2 498.766 220.8 483.966 242.8C469.166 264.8 449.966 276 425.566 276C401.166 276 381.566 264.8 366.766 242.4C351.966 220 344.766 192.4 344.766 160C344.766 127.6 351.966 100.4 366.366 78.4C381.166 56.4 400.366 45.2 424.766 45.2C449.166 45.2 468.766 56.4 483.566 78.8C498.366 101.2 505.966 128.4 505.966 160.8Z" fill="#1E1F21"/>
<path d="M739.434 4.39999L590.234 198.8V248.4H751.434V317.6H799.834V248.4H846.234V204H799.834V4.39999H739.434ZM751.434 60V204H640.634L751.434 60Z" fill="#1E1F21"/>
</g>
</svg>
