<svg width="12" height="19" viewBox="0 0 12 19" fill="none" xmlns="http://www.w3.org/2000/svg">
<path d="M7.67181 14.7122H4.21058V18.1734H7.67181V14.7122Z" fill="#52C136"/>
<path d="M7.67181 12.9816V11.8653C8.70002 11.5588 9.62842 10.9848 10.3621 10.202C11.0957 9.41909 11.6084 8.45544 11.8475 7.40952C12.0867 6.3636 12.0439 5.27293 11.7234 4.249C11.4029 3.22507 10.8162 2.3046 10.0234 1.58171C9.23057 0.858812 8.26 0.35941 7.21091 0.134553C6.16182 -0.0903038 5.07184 -0.0325498 4.05238 0.301912C3.03293 0.636373 2.12057 1.23555 1.40858 2.03818C0.696588 2.84081 0.210497 3.81811 0 4.87018L3.39546 5.55031C3.49182 5.06821 3.7231 4.62339 4.06238 4.2676C4.40167 3.91182 4.83501 3.65969 5.31199 3.54056C5.78896 3.42142 6.28996 3.44019 6.75669 3.59466C7.22342 3.74914 7.63669 4.03297 7.94842 4.41314C8.26014 4.79331 8.45749 5.25418 8.51753 5.74213C8.57756 6.23008 8.49779 6.72505 8.28751 7.16944C8.07723 7.61383 7.74508 7.98937 7.32971 8.25236C6.91434 8.51536 6.43282 8.655 5.94119 8.65503C5.48221 8.65503 5.04202 8.83736 4.71747 9.16191C4.39291 9.48646 4.21058 9.92665 4.21058 10.3856V12.9816H7.67181Z" fill="#52C136"/>
</svg>
