<svg width="21" height="21" viewBox="0 0 21 21" fill="none" xmlns="http://www.w3.org/2000/svg">
<path d="M14.4375 0H6.5625C2.93869 0 0 2.93869 0 6.5625V14.4375C0 18.0613 2.93869 21 6.5625 21H14.4375C18.0613 21 21 18.0613 21 14.4375V6.5625C21 2.93869 18.0613 0 14.4375 0ZM19.0312 14.4375C19.0312 16.9706 16.9706 19.0312 14.4375 19.0312H6.5625C4.02938 19.0312 1.96875 16.9706 1.96875 14.4375V6.5625C1.96875 4.02938 4.02938 1.96875 6.5625 1.96875H14.4375C16.9706 1.96875 19.0312 4.02938 19.0312 6.5625V14.4375Z" fill="url(#paint0_linear)"/>
<path d="M10.5 5.25C7.60069 5.25 5.25 7.60069 5.25 10.5C5.25 13.3993 7.60069 15.75 10.5 15.75C13.3993 15.75 15.75 13.3993 15.75 10.5C15.75 7.60069 13.3993 5.25 10.5 5.25ZM10.5 13.7812C8.69138 13.7812 7.21875 12.3086 7.21875 10.5C7.21875 8.69006 8.69138 7.21875 10.5 7.21875C12.3086 7.21875 13.7812 8.69006 13.7812 10.5C13.7812 12.3086 12.3086 13.7812 10.5 13.7812Z" fill="url(#paint1_linear)"/>
<path d="M16.1439 5.55611C16.5303 5.55611 16.8435 5.2429 16.8435 4.85654C16.8435 4.47019 16.5303 4.15698 16.1439 4.15698C15.7575 4.15698 15.4443 4.47019 15.4443 4.85654C15.4443 5.2429 15.7575 5.55611 16.1439 5.55611Z" fill="url(#paint2_linear)"/>
<defs>
<linearGradient id="paint0_linear" x1="1.92235" y1="19.0778" x2="19.0776" y2="1.92222" gradientUnits="userSpaceOnUse">
<stop stop-color="#FFC107"/>
<stop offset="0.507" stop-color="#F44336"/>
<stop offset="0.99" stop-color="#9C27B0"/>
</linearGradient>
<linearGradient id="paint1_linear" x1="6.78779" y1="14.2122" x2="14.2122" y2="6.78779" gradientUnits="userSpaceOnUse">
<stop stop-color="#FFC107"/>
<stop offset="0.507" stop-color="#F44336"/>
<stop offset="0.99" stop-color="#9C27B0"/>
</linearGradient>
<linearGradient id="paint2_linear" x1="15.6493" y1="5.35129" x2="16.6385" y2="4.36193" gradientUnits="userSpaceOnUse">
<stop stop-color="#FFC107"/>
<stop offset="0.507" stop-color="#F44336"/>
<stop offset="0.99" stop-color="#9C27B0"/>
</linearGradient>
</defs>
</svg>
