<svg width="20" height="20" viewBox="0 0 20 20" fill="none" xmlns="http://www.w3.org/2000/svg">
<path d="M17.5 13.3332L12.4975 18.3332H3.33333C3.11232 18.3332 2.90036 18.2454 2.74408 18.0891C2.5878 17.9328 2.5 17.7209 2.5 17.4998V2.49984C2.5 2.27882 2.5878 2.06686 2.74408 1.91058C2.90036 1.7543 3.11232 1.6665 3.33333 1.6665H16.6667C16.8877 1.6665 17.0996 1.7543 17.2559 1.91058C17.4122 2.06686 17.5 2.27882 17.5 2.49984V13.3332ZM15.8333 12.4998V3.33317H4.16667V16.6665H11.6667V12.4998H15.8333Z" fill="#7328D2"/>
<path d="M17.5 13.3332L12.4975 18.3332H3.33333C3.11232 18.3332 2.90036 18.2454 2.74408 18.0891C2.5878 17.9328 2.5 17.7209 2.5 17.4998V2.49984C2.5 2.27882 2.5878 2.06686 2.74408 1.91058C2.90036 1.7543 3.11232 1.6665 3.33333 1.6665H16.6667C16.8877 1.6665 17.0996 1.7543 17.2559 1.91058C17.4122 2.06686 17.5 2.27882 17.5 2.49984V13.3332ZM15.8333 12.4998V3.33317H4.16667V16.6665H11.6667V12.4998H15.8333Z" fill="url(#paint0_linear)" fill-opacity="0.3"/>
<path d="M17.5 13.3332L12.4975 18.3332H3.33333C3.11232 18.3332 2.90036 18.2454 2.74408 18.0891C2.5878 17.9328 2.5 17.7209 2.5 17.4998V2.49984C2.5 2.27882 2.5878 2.06686 2.74408 1.91058C2.90036 1.7543 3.11232 1.6665 3.33333 1.6665H16.6667C16.8877 1.6665 17.0996 1.7543 17.2559 1.91058C17.4122 2.06686 17.5 2.27882 17.5 2.49984V13.3332ZM15.8333 12.4998V3.33317H4.16667V16.6665H11.6667V12.4998H15.8333Z" fill="url(#paint1_linear)" fill-opacity="0.1"/>
<defs>
<linearGradient id="paint0_linear" x1="2.5" y1="1.6665" x2="10.7873" y2="9.12507" gradientUnits="userSpaceOnUse">
<stop stop-color="white"/>
<stop offset="1" stop-color="white" stop-opacity="0"/>
</linearGradient>
<linearGradient id="paint1_linear" x1="10" y1="9.99984" x2="18.2873" y2="17.4584" gradientUnits="userSpaceOnUse">
<stop stop-opacity="0"/>
<stop offset="1"/>
</linearGradient>
</defs>
</svg>
