<svg width="27" height="15" viewBox="0 0 27 15" fill="none" xmlns="http://www.w3.org/2000/svg">
<path d="M26.1513 13.5466C26.1194 13.478 26.0898 13.4211 26.0622 13.3755C25.6061 12.554 24.7344 11.5456 23.4477 10.3502L23.4205 10.3228L23.4069 10.3094L23.3931 10.2956H23.3793C22.7954 9.73891 22.4256 9.36461 22.2707 9.17298C21.9874 8.80793 21.9239 8.43842 22.0787 8.06402C22.1881 7.78115 22.5991 7.18377 23.3107 6.27105C23.685 5.78734 23.9815 5.39966 24.2004 5.10759C25.7792 3.00858 26.4637 1.66729 26.2537 1.08319L26.1722 0.94669C26.1174 0.864514 25.9759 0.789337 25.7481 0.720777C25.5197 0.65236 25.2277 0.641046 24.8717 0.686641L20.9296 0.713873C20.8657 0.691243 20.7745 0.693352 20.6557 0.720777C20.537 0.748201 20.4777 0.761961 20.4777 0.761961L20.4091 0.796241L20.3546 0.837425C20.309 0.864657 20.2588 0.912554 20.204 0.981019C20.1495 1.04924 20.1039 1.12931 20.0674 1.22055C19.6382 2.32475 19.1503 3.35139 18.6026 4.3004C18.2649 4.86628 17.9548 5.3567 17.6716 5.77195C17.3888 6.18705 17.1515 6.49289 16.96 6.68893C16.7682 6.88517 16.5952 7.04238 16.4397 7.16114C16.2845 7.27994 16.1661 7.33014 16.084 7.31178C16.0018 7.29341 15.9244 7.2752 15.8511 7.25698C15.7234 7.1748 15.6207 7.06304 15.5433 6.92161C15.4655 6.78017 15.4131 6.60215 15.3858 6.3877C15.3585 6.1731 15.3424 5.98851 15.3378 5.83332C15.3336 5.67831 15.3355 5.45906 15.3448 5.17619C15.3543 4.89318 15.3585 4.70169 15.3585 4.60129C15.3585 4.25446 15.3653 3.87805 15.3789 3.47196C15.3927 3.06588 15.4038 2.74412 15.4132 2.50709C15.4225 2.26981 15.4268 2.01877 15.4268 1.75412C15.4268 1.48947 15.4107 1.28192 15.3789 1.13128C15.3474 0.980826 15.2991 0.834788 15.2355 0.693209C15.1715 0.551773 15.0778 0.442364 14.9549 0.364694C14.8317 0.287121 14.6786 0.22556 14.4963 0.179821C14.0126 0.0703642 13.3967 0.011153 12.6482 0.00194768C10.951 -0.0162712 9.86037 0.0933293 9.37671 0.330606C9.18508 0.430857 9.01166 0.567834 8.85661 0.741105C8.6923 0.941943 8.66939 1.05154 8.788 1.06957C9.33562 1.1516 9.7233 1.34784 9.95147 1.65809L10.0337 1.82249C10.0976 1.9411 10.1615 2.1511 10.2254 2.45219C10.2892 2.75328 10.3304 3.08635 10.3485 3.45121C10.3941 4.11749 10.3941 4.68783 10.3485 5.16229C10.3028 5.63694 10.2597 6.00644 10.2185 6.2711C10.1773 6.53575 10.1158 6.75021 10.0337 6.91441C9.95147 7.07867 9.89676 7.17907 9.86934 7.2155C9.84196 7.25194 9.81914 7.27491 9.80102 7.28392C9.6824 7.32937 9.55904 7.35253 9.43137 7.35253C9.3035 7.35253 9.14845 7.28857 8.96597 7.16075C8.78354 7.03293 8.59421 6.85736 8.39797 6.63375C8.20174 6.41009 7.98043 6.09754 7.73395 5.69605C7.48766 5.29457 7.23211 4.82006 6.96746 4.27254L6.7485 3.87546C6.61162 3.62002 6.42463 3.24806 6.18736 2.75994C5.94994 2.27163 5.74009 1.79928 5.55766 1.343C5.48473 1.15136 5.37518 1.00547 5.22919 0.905075L5.16068 0.86389C5.11513 0.827453 5.04202 0.788761 4.94172 0.747529C4.84127 0.706345 4.73647 0.676811 4.62687 0.65864L0.87623 0.685873C0.492963 0.685873 0.232913 0.7727 0.0959845 0.946115L0.0411842 1.02815C0.013808 1.07384 0 1.14681 0 1.24725C0 1.34765 0.0273762 1.47087 0.0821766 1.61676C0.629701 2.90359 1.22512 4.14462 1.86844 5.34007C2.51175 6.53551 3.07079 7.49847 3.54519 8.22809C4.0197 8.95823 4.50336 9.64734 4.99618 10.2951C5.489 10.943 5.81521 11.3583 5.97482 11.5407C6.13462 11.7235 6.26014 11.8601 6.35138 11.9513L6.69365 12.2798C6.91266 12.4989 7.23427 12.7612 7.65863 13.0669C8.08308 13.3727 8.55298 13.6738 9.06857 13.9706C9.58426 14.267 10.1842 14.5088 10.8687 14.6958C11.5531 14.883 12.2192 14.9582 12.8672 14.9219H14.4414C14.7607 14.8944 15.0025 14.794 15.1669 14.6207L15.2214 14.5521C15.258 14.4976 15.2923 14.413 15.324 14.2991C15.356 14.1851 15.3719 14.0594 15.3719 13.9227C15.3626 13.5304 15.3924 13.1768 15.4607 12.862C15.5289 12.5473 15.6067 12.31 15.6937 12.1502C15.7806 11.9906 15.8787 11.8558 15.9878 11.7466C16.0973 11.6372 16.1752 11.5709 16.221 11.548C16.2664 11.5251 16.3027 11.5095 16.3301 11.5001C16.5491 11.4272 16.8068 11.4978 17.1037 11.7125C17.4003 11.9269 17.6786 12.1917 17.9388 12.5064C18.1989 12.8214 18.5114 13.1748 18.8763 13.5672C19.2415 13.9596 19.5608 14.2514 19.8345 14.4433L20.1082 14.6076C20.2909 14.7172 20.5282 14.8176 20.8203 14.9088C21.1118 15 21.3673 15.0228 21.5866 14.9772L25.0907 14.9226C25.4373 14.9226 25.707 14.8652 25.8983 14.7513C26.09 14.6372 26.2039 14.5116 26.2406 14.3749C26.2772 14.2381 26.2792 14.0828 26.2475 13.9092C26.2151 13.7361 26.1831 13.6151 26.1513 13.5466Z" fill="#4C75A3"/>
</svg>
