<svg width="31" height="21" viewBox="0 0 31 21" fill="none" xmlns="http://www.w3.org/2000/svg">
<path d="M28.9915 1.8027C27.9213 0.52229 25.9455 0 22.1721 0H8.47468C4.61492 0 2.60561 0.555981 1.53946 1.91917C0.5 3.24829 0.5 5.20664 0.5 7.91704V13.0831C0.5 18.334 1.73332 21 8.47468 21H22.1722C25.4445 21 27.2577 20.5391 28.4308 19.4092C29.6338 18.2504 30.1471 16.3585 30.1471 13.0831V7.91704C30.1471 5.05869 30.0666 3.08879 28.9915 1.8027ZM19.5335 11.2133L13.3136 14.4851C13.1745 14.5583 13.0224 14.5946 12.8706 14.5946C12.6986 14.5946 12.527 14.548 12.3751 14.4554C12.0889 14.2809 11.9142 13.9687 11.9142 13.632V7.10925C11.9142 6.77312 12.0885 6.46125 12.374 6.28664C12.6597 6.11203 13.015 6.10009 13.3114 6.25507L19.5313 9.50586C19.8478 9.67123 20.0465 10 20.047 10.3588C20.0474 10.7178 19.8495 11.0471 19.5335 11.2133Z" fill="#CD201F"/>
</svg>
