<svg xmlns="http://www.w3.org/2000/svg" width="190" height="29" viewBox="0 0 190 29">
    <path fill="#1477FB" fill-rule="evenodd" d="M7.024 14.54c0 .392.337.713 1.012.962a26.57 26.57 0 0 0 2.44.747c.953.249 1.905.57 2.857.962.953.393 1.766 1.042 2.44 1.946.675.903 1.013 2.036 1.013 3.399 0 2.122-.794 3.726-2.381 4.813C12.817 28.456 10.86 29 8.532 29 4.352 29 1.508 27.441 0 24.324l5.159-2.908c.529 1.546 1.653 2.318 3.373 2.318 1.428 0 2.143-.406 2.143-1.218 0-.393-.338-.72-1.012-.982a22.673 22.673 0 0 0-2.44-.766 20.495 20.495 0 0 1-2.858-.983c-.952-.406-1.766-1.041-2.44-1.906-.675-.864-1.012-1.925-1.012-3.183 0-2.043.747-3.628 2.242-4.754 1.494-1.127 3.34-1.69 5.535-1.69 1.64 0 3.135.36 4.485 1.08 1.349.721 2.433 1.762 3.254 3.125l-5.08 2.711c-.635-1.153-1.521-1.729-2.659-1.729-1.11 0-1.666.367-1.666 1.1zm25.754-5.738h5.952V28.45h-5.952v-1.847C31.588 28.201 29.696 29 27.103 29c-2.116 0-3.882-.72-5.297-2.161-1.416-1.441-2.123-3.432-2.123-5.973V8.802h5.952v11.2c0 1.152.324 2.036.972 2.652.648.615 1.475.923 2.48.923 1.138 0 2.037-.34 2.699-1.021.661-.682.992-1.69.992-3.026V8.802zm21.944-.55c2.117 0 3.882.72 5.298 2.161 1.415 1.441 2.123 3.432 2.123 5.973V28.45H56.19v-11.2c0-1.152-.324-2.036-.972-2.652-.648-.615-1.475-.923-2.48-.923-1.137 0-2.037.34-2.698 1.021-.662.682-.992 1.69-.992 3.026V28.45h-5.953V8.802h5.953v1.847c1.19-1.598 3.082-2.397 5.674-2.397zm33.73 0c2.276 0 4.1.74 5.477 2.22 1.375 1.48 2.063 3.452 2.063 5.914V28.45H90.04V16.897c0-.995-.245-1.781-.734-2.358-.49-.576-1.198-.864-2.123-.864-.98 0-1.74.327-2.282.982-.543.655-.814 1.559-.814 2.712v11.08h-5.952V16.898c0-.995-.245-1.781-.734-2.358-.49-.576-1.197-.864-2.123-.864-.98 0-1.74.327-2.282.982s-.813 1.559-.813 2.712v11.08H66.23V8.803h5.953v1.808c1.084-1.572 2.857-2.358 5.317-2.358 2.302 0 4.034.865 5.198 2.594 1.217-1.73 3.135-2.594 5.754-2.594zm16.945 12.732c.688 1.834 2.275 2.75 4.762 2.75 1.613 0 2.883-.497 3.81-1.493l4.761 2.712C116.772 27.65 113.89 29 110.08 29c-3.334 0-6-.982-7.997-2.947-1.997-1.965-2.996-4.44-2.996-7.427 0-2.96.986-5.43 2.957-7.407 1.97-1.978 4.504-2.967 7.599-2.967 2.883 0 5.284.989 7.202 2.967 1.918 1.978 2.877 4.447 2.877 7.407 0 .838-.08 1.624-.238 2.358h-14.087zm-.12-4.401h8.533c-.582-2.07-1.985-3.105-4.207-3.105-2.301 0-3.743 1.035-4.325 3.105zM137.5.943h5.952V28.45H137.5v-1.847c-1.402 1.598-3.373 2.397-5.913 2.397-2.619 0-4.854-1.002-6.706-3.006-1.852-2.004-2.778-4.46-2.778-7.368 0-2.908.926-5.364 2.778-7.368 1.852-2.004 4.087-3.006 6.706-3.006 2.54 0 4.51.799 5.913 2.397V.943zm-8.135 21.18c.873.865 2.01 1.297 3.413 1.297 1.402 0 2.54-.432 3.412-1.297.873-.864 1.31-2.03 1.31-3.497s-.437-2.633-1.31-3.497c-.873-.865-2.01-1.297-3.412-1.297-1.402 0-2.54.432-3.413 1.297-.873.864-1.31 2.03-1.31 3.497s.437 2.633 1.31 3.497zm23.929-16.072c-.688.682-1.522 1.022-2.5 1.022-.98 0-1.82-.347-2.52-1.041-.701-.694-1.052-1.526-1.052-2.495 0-.97.35-1.801 1.052-2.496.7-.694 1.54-1.041 2.52-1.041.978 0 1.818.347 2.52 1.041.7.695 1.051 1.526 1.051 2.496 0 .969-.357 1.807-1.071 2.514zm-5.477 22.399V8.802h5.953V28.45h-5.953zM172.54 8.802h5.952V28.45h-5.952v-1.847c-1.402 1.598-3.373 2.397-5.913 2.397-2.62 0-4.855-1.002-6.706-3.006-1.852-2.004-2.778-4.46-2.778-7.368 0-2.908.926-5.364 2.778-7.368 1.851-2.004 4.087-3.006 6.706-3.006 2.54 0 4.51.799 5.913 2.397V8.802zm-8.135 13.321c.873.865 2.01 1.297 3.412 1.297 1.403 0 2.54-.432 3.413-1.297.873-.864 1.31-2.03 1.31-3.497s-.437-2.633-1.31-3.497c-.873-.865-2.01-1.297-3.413-1.297-1.402 0-2.54.432-3.412 1.297-.873.864-1.31 2.03-1.31 3.497s.437 2.633 1.31 3.497zm24.484 5.777c-.74.733-1.627 1.1-2.659 1.1-1.032 0-1.918-.367-2.659-1.1-.74-.734-1.11-1.611-1.11-2.633s.37-1.9 1.11-2.633c.741-.733 1.627-1.1 2.66-1.1 1.03 0 1.917.367 2.658 1.1.74.734 1.111 1.611 1.111 2.633s-.37 1.9-1.111 2.633z"/>
</svg>
