<svg width="172" height="174" viewBox="0 0 172 174" fill="none" xmlns="http://www.w3.org/2000/svg">
<path d="M0 8V0L8 8H0Z" fill="#105EC7"/>
<path d="M62.5 0H0L172 174V111.5L62.5 0Z" fill="#1476FB"/>
<path d="M164 174V166L172 174H164Z" fill="#105EC7"/>
<path d="M53.8735 26.1102L60.4195 19.7888L63.1287 22.5943C63.9354 23.4297 64.3678 24.2892 64.4259 25.1728C64.4963 26.0566 64.1668 26.8507 63.4374 27.5551C62.6893 28.2775 61.8597 28.5787 60.9485 28.4586C60.0373 28.3385 59.1754 27.8577 58.3626 27.016L57.4957 26.1183L55.6254 27.9244L53.8735 26.1102ZM58.9171 24.7456L59.7479 25.606C60.061 25.9302 60.3828 26.1074 60.7132 26.1377C61.0497 26.1742 61.3519 26.063 61.62 25.8041C61.9006 25.5332 62.0222 25.235 61.985 24.9095C61.96 24.5842 61.788 24.2564 61.4689 23.926L60.6471 23.075L58.9171 24.7456ZM60.4916 32.9634L67.0376 26.642L72.1218 31.9069L70.5788 33.3969L67.2284 29.9275L66.2372 30.8848L69.2715 34.0269L67.8407 35.4085L64.8064 32.2665L63.7684 33.2689L67.1639 36.785L65.6209 38.275L60.4916 32.9634ZM67.0567 39.7618L73.6027 33.4404L75.3546 35.2546L72.6988 37.8193L77.531 37.5083L79.608 39.6591L74.4001 39.8992L73.1433 46.0647L71.0392 43.8858L71.8812 39.892L70.5012 39.9415L68.8086 41.576L67.0567 39.7618ZM80.6634 52.1303C79.3524 52.0951 78.2122 51.5757 77.2429 50.572C76.2736 49.5682 75.7912 48.4137 75.7956 47.1082C75.8122 45.803 76.2975 44.6898 77.2513 43.7687C78.199 42.8536 79.3283 42.4136 80.6393 42.4488C81.9564 42.4902 83.0995 43.0127 84.0688 44.0164C85.0381 45.0201 85.5144 46.1746 85.4977 47.4798C85.4933 48.7853 85.0142 49.8986 84.0604 50.8197C83.1128 51.7348 81.9804 52.1716 80.6634 52.1303ZM78.8975 49.0103C79.3731 49.5028 79.9298 49.7363 80.5677 49.7106C81.2116 49.6912 81.7798 49.4437 82.2723 48.9681C82.7586 48.4985 83.0197 47.9392 83.0555 47.2901C83.0976 46.635 82.8838 46.0643 82.4142 45.5781C81.9447 45.0918 81.3879 44.8584 80.744 44.8778C80.1061 44.9034 79.5409 45.154 79.0484 45.6296C78.5621 46.0992 78.295 46.6584 78.2469 47.3073C78.211 47.9564 78.4279 48.524 78.8975 49.0103ZM82.2418 55.4865L88.7878 49.1651L90.6391 51.0821L89.6129 55.0911L93.6553 54.2055L95.5065 56.1225L88.9605 62.4439L87.2176 60.6391L90.9769 57.0088L86.7981 57.8093L86.762 57.7719L87.6982 53.651L83.9576 57.2632L82.2418 55.4865ZM90.6236 64.1661L97.1696 57.8447L102.254 63.1096L100.711 64.5996L97.3605 61.1302L96.3693 62.0875L99.4035 65.2295L97.9728 66.6112L94.9385 63.4691L93.9005 64.4715L97.296 67.9877L95.753 69.4777L90.6236 64.1661ZM97.1888 70.9645L103.735 64.6431L105.487 66.4573L103.037 68.8233L105.285 71.1518L107.735 68.7858L109.487 70.6L102.941 76.9214L101.189 75.1072L103.677 72.7051L101.428 70.3766L98.9407 72.7787L97.1888 70.9645ZM102.822 79.4176L105.721 76.6181L106.281 77.1979C107.145 76.8208 107.972 76.3479 108.76 75.7794C109.554 75.2171 110.538 74.3701 111.71 73.2382L111.878 73.0757L116.691 78.06L111.735 82.8462L112.448 83.585L109.351 86.1787L107.87 84.6451L109.179 83.3808L105.82 79.9021L104.393 81.0448L102.822 79.4176ZM108.114 79.0963L109.983 81.032L113.35 77.781L111.977 76.3596L111.912 76.4228C110.739 77.5546 109.474 78.4458 108.114 79.0963ZM113.479 88.0208C112.943 87.466 112.584 86.8008 112.402 86.0254L114.397 85.4718C114.464 85.8407 114.627 86.1592 114.886 86.4273C115.097 86.6455 115.374 86.7453 115.717 86.7268L118.078 79.4957L120.028 81.5156L118.388 85.9736L122.819 84.4052L124.724 86.3784L117.265 88.6478C116.384 88.9204 115.65 89.0088 115.063 88.9127C114.489 88.8169 113.961 88.5196 113.479 88.0208ZM119.283 93.8437L125.829 87.5223L130.913 92.7872L129.37 94.2772L126.02 90.8078L125.029 91.7651L128.063 94.9071L126.632 96.2888L123.598 93.1467L122.56 94.1491L125.955 97.6653L124.412 99.1553L119.283 93.8437ZM125.848 100.642L132.394 94.3207L134.245 96.2378L133.219 100.247L137.262 99.3611L139.113 101.278L132.567 107.6L130.824 105.795L134.583 102.164L130.404 102.965L130.368 102.928L131.304 98.8067L127.564 102.419L125.848 100.642ZM134.23 109.322L140.776 103L142.528 104.815L140.471 106.801L141.428 107.793C142.216 108.609 142.658 109.454 142.753 110.326C142.855 111.192 142.547 111.971 141.83 112.663C141.126 113.343 140.342 113.642 139.479 113.56C138.623 113.471 137.806 113.025 137.029 112.221L134.23 109.322ZM137.506 109.664L138.418 110.608C138.713 110.914 139.004 111.085 139.292 111.12C139.592 111.156 139.869 111.051 140.125 110.804C140.356 110.581 140.458 110.319 140.433 110.018C140.407 109.718 140.253 109.421 139.97 109.128L139.049 108.174L137.506 109.664ZM140.308 115.615L146.854 109.294L148.605 111.108L142.059 117.429L140.308 115.615ZM143.723 119.152L150.269 112.831L152.003 114.626L148.318 118.184L154.45 117.16L156.085 118.853L149.539 125.174L147.805 123.379L151.489 119.821L145.357 120.845L143.723 119.152ZM153.652 115.492C153.218 115.043 152.985 114.551 152.951 114.018C152.924 113.49 153.104 112.972 153.493 112.464L154.628 113.284C154.386 113.782 154.41 114.181 154.699 114.48C154.994 114.786 155.395 114.826 155.901 114.602L156.681 115.765C156.16 116.136 155.633 116.295 155.1 116.243C154.574 116.197 154.091 115.947 153.652 115.492Z" fill="white"/>
</svg>
